<?xml version="1.0" encoding="utf-8"?>
<!-- Generator: Adobe Illustrator 21.1.0, SVG Export Plug-In . SVG Version: 6.00 Build 0)  -->
<svg version="1.1" id="Layer_1" xmlns="http://www.w3.org/2000/svg" xmlns:xlink="http://www.w3.org/1999/xlink" x="0px" y="0px"
	 viewBox="0 0 159.3 41.3" style="enable-background:new 0 0 159.3 41.3;" xml:space="preserve">
<style type="text/css">
	.st0{fill:#C1D42F;}
</style>
<g>
	<g>
		<g>
			<g>
				<path class="st0" d="M158.5,1.3v27.4v10.9l-9.8-10.9H0.7V1.3H158.5z M10.4,21.9h2.9V13l3.8,5.8h0.1l3.8-5.8v8.9h3V8.2h-3.2
					L17.3,14l-3.6-5.8h-3.2V21.9z M36.6,22.1c4.2,0,7.3-3.2,7.3-7.1v0c0-3.9-3-7-7.2-7s-7.3,3.2-7.3,7.1v0
					C29.4,19,32.4,22.1,36.6,22.1 M36.7,19.3c-2.4,0-4.1-1.9-4.1-4.3v0c0-2.3,1.7-4.2,4.1-4.2c2.4,0,4.1,1.9,4.1,4.3v0
					C40.8,17.4,39.1,19.3,36.7,19.3 M49.2,21.9h2.9V13l3.8,5.8H56l3.8-5.8v8.9h3V8.2h-3.2L56,14l-3.6-5.8h-3.2V21.9z M68.7,21.9
					h10.4v-2.7h-7.4v-2.9h6.4v-2.7h-6.4v-2.8H79V8.2H68.7V21.9z M84.4,21.9h3v-8.7l6.6,8.7h2.6V8.2h-3v8.4l-6.4-8.4h-2.8V21.9z
					 M105.4,21.9h3V11h4.2V8.2h-11.3V11h4.2V21.9z M123.2,22.1c3.7,0,6-2,6-6.2V8.2h-3V16c0,2.2-1.1,3.3-2.9,3.3
					c-1.8,0-2.9-1.2-2.9-3.4V8.2h-3V16C117.3,20,119.6,22.1,123.2,22.1 M135.1,21.9h2.9V13l3.8,5.8h0.1l3.8-5.8v8.9h3V8.2h-3.2
					l-3.6,5.8l-3.6-5.8h-3.2V21.9z"/>
			</g>
		</g>
	</g>
	<g>
		<path class="st0" d="M15.3,34.9v4.7h-1.5v-4.7h-1.5v-1.2h4.5v1.2H15.3z"/>
		<path class="st0" d="M33.3,39.7v-5.9h4.3v1.1h-2.9V36h2.7v1.1h-2.7v1.4h3.1v1.2H33.3z"/>
		<path class="st0" d="M54.5,39.7v-5.9h1.5v4.6h2.3v1.2H54.5z"/>
		<path class="st0" d="M74.7,39.7v-5.9h4.3v1.1h-2.9V36h2.7v1.1h-2.7v1.4h3.1v1.2H74.7z"/>
		<path class="st0" d="M100.6,38.9c-0.3,0.3-1,1-2.1,1c-0.2,0-0.7,0-1.2-0.2c-1.5-0.7-1.6-2.4-1.6-2.9c0-0.4,0-1.3,0.7-2.1
			c0.3-0.3,0.9-1,2.1-1c0.8,0,1.6,0.3,2.1,0.9c0.2,0.2,0.3,0.5,0.4,0.6l-1.2,0.6c-0.1-0.2-0.1-0.3-0.2-0.3c-0.1-0.2-0.5-0.6-1.1-0.6
			c-0.2,0-0.6,0-0.9,0.3c-0.2,0.2-0.6,0.7-0.6,1.5c0,0.1,0,0.2,0,0.4c0.1,0.8,0.4,1.2,0.8,1.4c0.1,0.1,0.3,0.2,0.6,0.2
			c0.8,0,1.1-0.6,1.3-0.9l1.2,0.6C100.8,38.6,100.7,38.8,100.6,38.9z"/>
		<path class="st0" d="M122.1,39.2c-0.3,0.3-0.9,0.6-1.8,0.6c-0.4,0-1.3-0.1-2.1-0.8c-0.8-0.8-0.8-1.9-0.8-2.3c0-0.3,0-1.1,0.6-1.9
			c0.3-0.4,1-1.2,2.3-1.2c1.1,0,1.8,0.5,2.1,0.8c0.6,0.6,0.9,1.5,0.9,2.3C123.2,37.7,122.8,38.6,122.1,39.2z M121.3,35.4
			c-0.1-0.1-0.2-0.3-0.6-0.4c-0.2-0.1-0.5-0.1-0.6-0.1c-0.3,0-0.5,0.1-0.7,0.2c-0.6,0.3-0.8,1.1-0.8,1.7c0,0.8,0.2,1.2,0.5,1.5
			c0.3,0.3,0.6,0.4,1,0.4c0.2,0,0.6,0,1-0.4c0.3-0.4,0.4-0.8,0.5-1.3C121.7,36.1,121.5,35.6,121.3,35.4z"/>
		<path class="st0" d="M145,39.7l0.1-4.7l-1.3,4.7h-1.3l-1.3-4.7l0.1,4.7h-1.4v-5.9h2.1l1.1,4.1l1.1-4.1h2.1v5.9H145z"/>
	</g>
</g>
</svg>
